<svg xmlns="http://www.w3.org/2000/svg" xmlns:xlink="http://www.w3.org/1999/xlink" width="100" height="100" node-id="1" sillyvg="true" template-height="100" template-width="100" version="1.1" viewBox="0 0 100 100"><defs node-id="28"><linearGradient id="linearGradient-1" x1=".278" x2=".722" y1="0" y2="1" gradientUnits="objectBoundingBox" node-id="5" spreadMethod="pad"><stop offset="0" stop-color="#33afff"/><stop offset="1" stop-color="#405cff"/></linearGradient><linearGradient id="linearGradient-2" x1=".43" x2=".57" y1="0" y2="1" gradientUnits="objectBoundingBox" node-id="8" spreadMethod="pad"><stop offset="0" stop-color="#33afff"/><stop offset="1" stop-color="#405cff"/></linearGradient><linearGradient id="linearGradient-3" x1="0" x2="1" y1="0" y2="1" gradientUnits="objectBoundingBox" node-id="11" spreadMethod="pad"><stop offset="0" stop-color="#33afff"/><stop offset="1" stop-color="#405cff"/></linearGradient></defs><g node-id="47"><g node-id="48"><path id="矩形备份-41" fill="none" stroke="none" d="M 0.00 0.00 L 100.00 0.00 L 100.00 100.00 L 0.00 100.00 Z" group-id="1,2" node-id="17" target-height="100" target-width="100" target-x="0" target-y="0"/><g node-id="49"><path id="矩形备份-31" fill="#c0d5fb" fill-rule="evenodd" stroke="none" d="M 12.50 61.25 L 27.50 61.25 L 27.50 76.25 L 12.50 76.25 Z" group-id="1,2,3" node-id="19" target-height="15" target-width="15" target-x="12.5" target-y="61.25"/><path id="矩形备份-42" fill="url(#linearGradient-1)" fill-rule="evenodd" stroke="none" d="M 32.50 53.75 L 47.50 53.75 L 47.50 76.25 L 32.50 76.25 Z" group-id="1,2,3" node-id="20" target-height="22.5" target-width="15" target-x="32.5" target-y="53.75"/><path id="矩形备份-43" fill="#c0d5fb" fill-rule="evenodd" stroke="none" d="M 52.50 46.25 L 67.50 46.25 L 67.50 76.25 L 52.50 76.25 Z" group-id="1,2,3" node-id="21" target-height="30" target-width="15" target-x="52.5" target-y="46.25"/><path id="矩形备份-44" fill="url(#linearGradient-2)" fill-rule="evenodd" stroke="none" d="M 72.50 36.25 L 87.50 36.25 L 87.50 76.25 L 72.50 76.25 Z" group-id="1,2,3" node-id="22" target-height="40" target-width="15" target-x="72.5" target-y="36.25"/><path id="矩形" fill="none" stroke="#333" stroke-linecap="butt" stroke-width="2" d="M 6.00 16.00 L 94.00 16.00 L 94.00 84.00 L 6.00 84.00 Z" group-id="1,2,3" node-id="23" target-height="68" target-width="88" target-x="6" target-y="16"/><g node-id="50"><path id="路径" fill="url(#linearGradient-3)" fill-rule="evenodd" stroke="none" d="M 20.62 40.00 L 22.53 39.81 L 24.27 39.26 L 25.87 38.40 L 27.25 37.25 L 28.40 35.87 L 29.26 34.27 L 29.81 32.53 L 30.00 30.62 L 29.81 28.72 L 29.26 26.98 L 28.40 25.38 L 27.25 24.00 L 25.87 22.85 L 24.27 21.99 L 22.53 21.44 L 20.62 21.25 L 18.72 21.44 L 16.98 21.99 L 15.38 22.85 L 14.00 24.00 L 12.85 25.38 L 11.99 26.98 L 11.44 28.72 L 11.25 30.62 L 11.44 32.53 L 11.99 34.27 L 12.85 35.87 L 14.00 37.25 L 15.38 38.40 L 16.98 39.26 L 18.72 39.81 L 20.62 40.00 Z" group-id="1,2,3,4" node-id="25" target-height="18.75" target-width="18.75" target-x="11.25" target-y="21.25"/><path id="路径" fill="#fff" fill-rule="evenodd" stroke="none" d="M 24.48 26.98 L 24.87 26.73 L 25.31 26.64 L 25.75 26.73 L 26.14 26.98 L 26.48 27.74 L 26.24 28.53 L 26.14 28.64 L 20.52 34.27 L 19.76 34.61 L 18.97 34.36 L 18.86 34.27 L 16.05 31.45 L 15.79 31.06 L 15.70 30.62 L 15.79 30.19 L 16.05 29.80 L 16.81 29.46 L 17.59 29.70 L 17.70 29.80 L 19.69 31.78 L 24.48 26.98 Z" group-id="1,2,3,4" node-id="26" target-height="7.97" target-width="10.78" target-x="15.7" target-y="26.64"/></g></g></g></g></svg>